Patient4_TMGait_0pt6_01_right_05_EMG.mot
version=1
nRows=26
nColumns=33
inDegrees=no
endheader
time	1LAddLong	2LGlutMax	3LGlutMed	4LIliopsoas	5LSemiMemb	6LBicFemLong	7LRecFem	8LVastMed	9LVastLat	10LGasMed	11LTibAnt	12lTibPost	13LPeroneusLong	14LSol	15LExtDigLong	16LFlexDigLong	17RAddLong	18RGlutMax	19RGlutMed	20RIliopsoas	21RSemiMemb	22RBicFemLong	23RRecFem	24RVastMed	25RVastLat	26RGasMed	27RTibAnt	28RTibPost	29RPeroneusLong	30RSol	31RExtDigLong	32RFlexDigLong
5.39	-0.010529	-0.13489	-0.095673	0.017853	-0.020599	0.12238	0.12741	-0.002899	0.003357	0.27176	0.015564	0.005188	-0.018158	-0.19272	0.094604	0.28229	-0.10208	-0.13687	-0.072479	-0.17303	0.057983	0.014496	0.31662	-0.066223	-0.043335	-0.020447	0.19974	-0.006409	-0.20645	0.045929	-0.001831	0
5.391	-0.011444	-0.12451	-0.16495	0.025024	-0.035095	0.072327	0.062256	0.005188	0.000916	0.11734	0.014343	0.011597	0.13428	-0.16968	0.048523	0.14557	-0.093384	-0.14801	-0.10132	-0.13977	0.063171	0.020905	0.27954	-0.076752	-0.061798	-0.017395	0.18601	-0.002899	-0.14694	-0.006866	-0.000305	-0.002136
5.392	-0.006714	-0.12009	-0.17487	0.009308	-0.04425	0.050812	0.005341	0.000153	-0.019836	-0.019531	0.007172	0.00473	0.19318	-0.019531	0.03418	0.071564	-0.072327	-0.1297	-0.046997	-0.038605	0.061493	0.022278	0.20783	-0.085297	-0.036469	-0.021973	0.006104	-0.007324	0.010681	-0.028076	-0.001068	-0.007629
5.393	0.006256	-0.082092	-0.10117	-0.011597	0.056	-0.024261	0.002594	-0.006714	0.000153	0.087891	0.002594	0.021515	0.076141	0.12161	0.009308	-0.025787	-0.050659	-0.13687	0.11093	0.042877	0.06424	0.033264	0.14557	-0.09079	-0.045166	-0.025024	-0.14557	-0.001678	0.28641	-0.015564	-0.000916	-0.012207
5.394	0.001831	-0.096588	-0.095978	0.002594	0.078278	0.001678	0.063782	-0.007477	0.007629	0.039063	0.020599	0.011597	0.015564	-0.06073	0.007629	-0.074463	-0.00885	-0.14038	0.17303	0.23514	0.065613	0.009308	0.10651	-0.12421	-0.058289	-0.013123	-0.084076	-0.006561	0.24902	0.026093	-0.002289	-0.00061
5.395	-0.005035	-0.066681	-0.027771	-0.001526	0.059814	-0.003357	0.07309	0.006104	0.007172	-0.016785	0.019531	0.012817	-0.026398	-0.21561	0.032349	-0.0737	0.098724	-0.1831	0.025635	0.38193	0.058594	0.015259	0.052795	-0.103	-0.036469	-0.014343	0.006714	-0.006409	0.09079	0.015259	0.007324	-0.004883
5.396	-0.013428	-0.064545	-0.001678	0.004425	0.011444	-0.02533	0.069122	0.011749	0.069122	-0.060272	0.037537	0.017853	-0.040588	-0.32089	0.041199	-0.041199	0.089722	-0.1828	-0.0177	0.27924	0.047302	0.014801	0.077209	-0.11322	-0.033722	-0.029297	0.083313	-0.005646	-0.022125	-0.016022	-0.002747	-0.019684
5.397	-0.016327	-0.074463	-0.072479	0.000153	-0.046692	-0.003967	0.052948	0.006866	0.13184	-0.057526	0.023651	0.00824	-0.041199	-0.25909	0.01358	-0.060425	0.084076	-0.22186	-0.036316	0.089111	0.048523	0.014648	0.083771	-0.12619	-0.03952	-0.026703	-0.045471	-0.005188	0.098572	0.023041	-0.001831	-0.016022
5.398	-0.022888	-0.12726	-0.058289	0.003967	-0.072327	0.020447	0.1831	0.007172	0.13138	-0.041351	0.03067	0.015411	-0.042267	-0.13504	-0.010681	-0.046997	0.063171	-0.25146	-0.054932	-0.001221	0.037689	0.023193	0.090637	-0.12802	-0.044861	-0.030365	-0.047455	-0.007629	0.077667	0.086823	-0.002136	-0.013123
5.399	-0.025635	-0.098419	-0.090027	0.021057	-0.090485	0.031433	0.1532	0.007935	0.087128	-0.040741	0.030518	0.013428	-0.033112	0.067902	-0.007935	-0.042267	0.026398	-0.24963	0.055237	0.053558	0.037079	0.019226	0.10346	-0.11078	-0.026093	-0.023956	-0.091705	-0.006409	0.35873	0.066986	0.001831	-0.002594
5.4	-0.016174	-0.10132	-0.17105	0.010071	-0.077667	-0.017853	0.11795	0.002594	0.036469	-0.028992	0.022888	0.010986	-0.013885	0.11398	0.003357	-0.042419	-0.012817	-0.28061	0.052643	0.032959	0.020294	0.003815	0.098877	-0.12466	-0.033875	-0.016785	-0.30975	-0.006256	0.59113	-0.037994	-0.000763	0.005798
5.401	-0.007782	-0.12146	-0.16098	0.014343	-0.092468	-0.059662	0.10178	0.005188	0.0354	-0.022125	0.016479	0.009308	-0.000763	0.13611	0.007629	-0.042267	-0.020447	-0.24872	0.11826	-0.075684	0.020294	0.003662	0.12253	-0.14481	-0.044708	-0.017548	-0.32333	-0.005798	0.37155	-0.05661	-0.001984	-0.000458
5.402	-0.007172	-0.067139	0.030975	-0.002899	-0.1268	-0.06485	0.05127	0.003204	0.15549	-0.046692	0.012817	0.004425	0.005188	0.14236	0.007477	-0.021667	-0.011902	-0.20477	0.2153	-0.07843	0.014954	0.004272	0.12405	-0.13336	-0.050964	-0.023956	0.001221	-0.011597	-0.21591	-0.026093	-0.002899	-0.000458
5.403	-0.00412	-0.076294	0.045166	0.015869	0.037537	-0.020142	0.042114	-0.007935	0.21912	-0.054626	0.007935	0.004883	0.013428	0.16998	0.006866	-0.033417	-0.010376	-0.22812	0.18249	-0.005493	0.020294	-0.010223	0.091248	-0.11643	-0.031433	-0.024567	0.35767	-0.007477	-0.41122	-0.021057	-0.007782	-0.000763
5.404	0.00946	-0.088959	-0.045319	0.007477	0.04776	0.020447	0.049591	0.001984	0.2504	-0.069733	0.016327	0.003815	0.001831	0.17029	0.011749	-0.020905	-0.02121	-0.21652	0.24475	0.040283	0.029907	0.021362	0.072479	-0.019684	-0.027466	-0.02121	0.69244	-0.006714	-0.4805	-0.031586	-0.002594	0.006866
5.405	0.010071	-0.066528	-0.048676	-0.011292	0.034332	-0.009308	0.10407	-0.001526	0.22186	-0.055237	0.024719	-0.000763	-0.04837	0.12405	0.032806	-0.13825	0.012665	-0.20371	0.30258	0.031281	0.054932	0.039825	-0.03952	-0.039215	-0.010223	-0.023804	0.35355	-0.007782	-0.48782	-0.054779	-0.003204	0.000153
5.406	0.020142	-0.058441	-0.058441	-0.002899	0.10437	-0.062408	0.15457	-0.005951	0.1918	-0.021515	0.022736	-0.000916	-0.031433	0.13657	0.015869	-0.24231	0.055084	-0.2005	0.35065	0.019684	0.051117	0.020905	0.042725	-0.056	-0.001984	-0.024414	0.50568	-0.012512	-0.48218	-0.13046	-0.004578	-0.000916
5.407	0.019379	-0.056305	-0.067596	0.014191	0.079193	-0.010071	0.20828	0.002136	0.083313	-0.007629	0.018768	0.006104	0.019379	0.14557	0.015411	0.051727	0.045166	-0.18662	0.24246	-0.036774	0.03006	0.043335	0.14557	-0.06546	0.006104	-0.017395	0.11108	-0.007477	-0.050507	-0.15076	-0.006866	-0.006561
5.408	0.004578	-0.035095	0.036011	0.007477	0.034027	0.047455	0.24429	0.002289	-0.26108	-0.009155	0.023651	-0.011902	0.024261	0.1297	0.037537	0.070648	0.027618	-0.18585	0.25452	-0.0737	0.022278	0.037231	0.21347	-0.046234	-0.001678	-0.014038	-0.64896	-0.00885	0.18601	-0.16083	0.002441	-0.007172
5.409	0.005493	-0.045624	0.06897	0.024719	-0.003052	0.040283	0.22339	0.009155	-0.32776	0.020752	0.023956	0.005188	-0.015869	0.18799	0.000916	0.43121	0.026093	-0.20371	0.25269	-0.0914	0.024567	0.043945	0.19073	-0.050812	-0.018311	-0.01709	-0.40054	-0.01358	0.27969	-0.16281	-0.001678	-0.011139
5.41	0.001984	-0.074768	0.060272	0.014648	0.016022	-0.027771	0.18738	0.009613	-0.31769	-0.020905	0.015106	0.012817	-0.027771	0.10559	-0.043182	0.27573	0.068359	-0.20325	0.2298	-0.090942	0.021973	0.07019	0.17838	-0.049286	-0.007477	-0.01236	-0.27969	-0.003815	0.23209	-0.13626	-0.001831	-0.011597
5.411	0.007477	-0.053253	0.02121	-0.001373	0.029907	-0.036926	0.20126	-0.000916	-0.18936	-0.054016	-0.005951	0.002289	0.067139	0.068817	-0.084839	-0.07019	0.041199	-0.22568	0.1767	-0.030365	0.027161	0.040588	-0.004425	-0.065155	-0.022278	-0.007782	-0.15396	-0.006409	-0.071564	-0.040894	-0.001221	-0.01236
5.412	-0.005798	-0.057068	0.00473	0.009155	0.020447	-0.013123	0.14389	0.005646	-0.10529	-0.024414	0.015869	0.003967	0.085907	0.20294	-0.06134	0.18051	-0.003967	-0.20538	0.27374	-0.00412	0.014038	0.019226	0.081482	-0.057068	-0.037994	-0.018311	0.093079	-0.008545	-0.14587	0.062408	-0.001678	-0.007324
5.413	0.010223	-0.056458	-0.044403	0.007172	0.034027	-0.0383	0.001984	0.015869	0.017548	0.05661	0.029602	-0.005035	0.045319	0.32989	-0.015411	-0.45959	-0.056915	-0.21774	0.2565	-0.007629	0.001526	0.039978	0.11734	-0.061646	-0.024261	-0.028839	0.15747	-0.013733	-0.23697	0.14999	-0.003357	-0.010529
5.414	-0.005493	-0.025787	-0.042877	0.014648	-0.014496	-0.02121	-0.045319	0.004425	0.16434	0.08194	0.011292	-0.004272	0.10559	0.14771	-0.001373	-1.2944	-0.075378	-0.1683	0.2626	0.006104	0.001221	0.045013	0.11551	-0.097961	-0.013275	-0.033264	-0.13641	-0.007782	-0.13519	0.14999	-0.001678	-0.004883
5.415	0.008392	-0.015564	-0.000916	0.020294	-0.004272	-0.009003	-0.044098	-0.006866	0.20752	-0.027771	-0.037384	-0.001068	0.15457	-0.1062	-0.030823	1.125	-0.068817	-0.17532	0.35507	-0.040588	0.001831	0.042267	-0.023499	-0.10971	-0.003815	-0.018921	-0.39963	-0.00885	0.18234	0.048065	0.000763	-0.009613
